<mxfile host="app.diagrams.net" modified="2023-07-02T16:38:15.457Z" agent="Mozilla/5.0 (Macintosh; Intel Mac OS X 10_15_7) AppleWebKit/537.36 (KHTML, like Gecko) Chrome/114.0.0.0 Safari/537.36" version="21.3.8" etag="G9qRIFKnwC6W1FmkPijs" type="github">
  <diagram name="第 1 页" id="KlaEcMoT_6uGz8R-hTSm">
    <mxGraphModel>
      <root>
        <mxCell id="0" />
        <mxCell id="1" parent="0" />
      </root>
    </mxGraphModel>
  </diagram>
</mxfile>
